<svg t="1776663296865" class="icon" viewBox="0 0 1024 1024" version="1.1" xmlns="http://www.w3.org/2000/svg" p-id="4817" width="200" height="200"><path d="M657.066667 324.266667c0 9.429333 7.6288 17.066667 17.066666 17.066666h192a17.066667 17.066667 0 1 0 0-34.133333H674.133333c-9.437867 0-17.066667 7.637333-17.066666 17.066667z m89.6 115.2c0 9.429333 7.6288 17.066667 17.066666 17.066666h153.6a17.066667 17.066667 0 1 0 0-34.133333h-153.6c-9.437867 0-17.066667 7.637333-17.066666 17.066667z m-72.533334 128c0 9.437867 7.6288 17.066667 17.066667 17.066666h179.2a17.066667 17.066667 0 1 0 0-34.133333H691.2c-9.437867 0-17.066667 7.6288-17.066667 17.066667z" fill="#ffffff" p-id="4818"></path><path d="M586.205867 213.333333c17.262933 0 29.038933 17.288533 22.528 33.1008l-75.52 183.210667h142.165333c20.906667 0 32.059733 24.362667 18.269867 39.893333l-348.544 392.558934c-16.4096 18.4832-46.404267 3.549867-42.282667-19.720534l0.503467-2.2784 64.8704-242.2016H237.678933l-1.578666-0.0512c-16.1792-1.006933-27.025067-17.3056-21.154134-32.546133l129.698134-336.477867c1.749333-4.5568 4.864-8.4736 8.925866-11.2384A24.5248 24.5248 0 0 1 367.36 213.333333h218.845867z m-334.08 350.429867H412.672L347.153067 808.362667l305.962666-344.593067H482.2272L571.383467 247.466667H374.033067L252.125867 563.7632z" fill="#ffffff" p-id="4819"></path></svg>