<svg t="1776604810307" class="icon" viewBox="0 0 1024 1024" version="1.1" xmlns="http://www.w3.org/2000/svg" p-id="5443" width="200" height="200"><path d="M1024 953.6L953.6 1024l-217.6-217.6 70.4-70.4 217.6 217.6z m-614.4-236.8c-166.4 0-307.2-140.8-307.2-307.2 0-166.4 140.8-307.2 307.2-307.2 166.4 0 307.2 140.8 307.2 307.2 0 166.4-140.8 307.2-307.2 307.2zM409.6 0C185.6 0 0 185.6 0 409.6s185.6 409.6 409.6 409.6c224 0 409.6-185.6 409.6-409.6S633.6 0 409.6 0z" fill="#D8D8D8" p-id="5444"></path></svg>